<svg width="16" height="16" viewBox="0 0 16 16" fill="none" xmlns="http://www.w3.org/2000/svg">
<path d="M4.66683 7.3335C4.27286 7.3335 3.88276 7.2559 3.51878 7.10513C3.1548 6.95437 2.82408 6.73339 2.54551 6.45482C2.26693 6.17624 2.04595 5.84552 1.89519 5.48155C1.74443 5.11757 1.66683 4.72746 1.66683 4.3335C1.66683 3.93953 1.74443 3.54942 1.89519 3.18545C2.04595 2.82147 2.26693 2.49075 2.54551 2.21218C2.82408 1.9336 3.1548 1.71262 3.51878 1.56186C3.88276 1.41109 4.27286 1.3335 4.66683 1.3335C5.46248 1.3335 6.22554 1.64957 6.78815 2.21218C7.35076 2.77478 7.66683 3.53785 7.66683 4.3335C7.66683 5.12915 7.35076 5.89221 6.78815 6.45482C6.22554 7.01743 5.46248 7.3335 4.66683 7.3335ZM11.6668 10.0002C10.9596 10.0002 10.2813 9.71921 9.78121 9.21911C9.28111 8.71902 9.00016 8.04074 9.00016 7.3335C9.00016 6.62625 9.28111 5.94798 9.78121 5.44788C10.2813 4.94778 10.9596 4.66683 11.6668 4.66683C12.3741 4.66683 13.0524 4.94778 13.5524 5.44788C14.0525 5.94798 14.3335 6.62625 14.3335 7.3335C14.3335 8.04074 14.0525 8.71902 13.5524 9.21911C13.0524 9.71921 12.3741 10.0002 11.6668 10.0002ZM11.6668 10.6668C12.4625 10.6668 13.2255 10.9829 13.7881 11.5455C14.3508 12.1081 14.6668 12.8712 14.6668 13.6668V14.0002H8.66683V13.6668C8.66683 12.8712 8.9829 12.1081 9.54551 11.5455C10.1081 10.9829 10.8712 10.6668 11.6668 10.6668ZM4.66683 8.00016C5.10457 8.00016 5.53802 8.08638 5.94244 8.2539C6.34686 8.42141 6.71432 8.66694 7.02385 8.97647C7.33338 9.286 7.57891 9.65347 7.74643 10.0579C7.91394 10.4623 8.00016 10.8958 8.00016 11.3335V14.0002H1.3335V11.3335C1.3335 10.4494 1.68469 9.60159 2.30981 8.97647C2.93493 8.35135 3.78277 8.00016 4.66683 8.00016Z" fill="#2D5BFF"/>
</svg>
