<svg width="14" height="16" viewBox="0 0 14 16" fill="none" xmlns="http://www.w3.org/2000/svg">
<path d="M6.2502 6.78631C6.4702 6.90131 6.7252 6.96631 7.0002 6.96631C7.2752 6.96631 7.5302 6.90131 7.7502 6.78631C7.8202 6.74631 7.9002 6.83131 7.8552 6.90131C7.6752 7.18131 7.3602 7.36631 7.0002 7.36631C6.6402 7.36631 6.3252 7.18131 6.1452 6.90131C6.1002 6.83131 6.1752 6.74631 6.2502 6.78631ZM5.1052 5.25131C5.1802 4.94631 5.4602 4.71631 5.7902 4.71631C6.1352 4.71631 6.4202 4.96131 6.4852 5.28631C6.5002 5.35631 6.4452 5.42131 6.3702 5.42131H6.3312C6.3403 5.38365 6.345 5.34506 6.3452 5.30631C6.3452 5.05131 6.1452 4.85131 5.8952 4.85131C5.82568 4.85149 5.75712 4.86754 5.69475 4.89824C5.63238 4.92894 5.57785 4.97348 5.53531 5.02846C5.49277 5.08345 5.46335 5.14742 5.44929 5.2155C5.43523 5.28358 5.43691 5.35397 5.4542 5.42131H5.2402C5.1502 5.42131 5.0852 5.34131 5.1052 5.25131Z" fill="#2D5BFF"/>
<path d="M6.14997 5.30131C6.14997 5.15631 6.03497 5.04131 5.88997 5.04131C5.85477 5.04068 5.81984 5.0475 5.78747 5.06131C5.79711 5.06847 5.80501 5.07772 5.81059 5.08835C5.81617 5.09899 5.81928 5.11075 5.81969 5.12275C5.82011 5.13476 5.81781 5.1467 5.81298 5.1577C5.80815 5.16869 5.80091 5.17846 5.79178 5.18627C5.78266 5.19409 5.7719 5.19975 5.76029 5.20283C5.74868 5.20592 5.73653 5.20635 5.72473 5.20409C5.71293 5.20184 5.70179 5.19696 5.69214 5.18981C5.68249 5.18266 5.67457 5.17343 5.66897 5.16281C5.64504 5.20136 5.63162 5.24551 5.63004 5.29086C5.62846 5.33621 5.63878 5.38118 5.65997 5.42131H6.11997C6.13997 5.38631 6.14997 5.34631 6.14997 5.30131ZM8.89997 5.25131C8.82497 4.94631 8.54497 4.71631 8.21497 4.71631C7.86997 4.71631 7.58497 4.96131 7.51997 5.28631C7.50497 5.35631 7.55997 5.42131 7.63497 5.42131H7.67397C7.66486 5.38365 7.66016 5.34506 7.65997 5.30631C7.65497 5.05131 7.85997 4.85131 8.10997 4.85131C8.17953 4.85141 8.24814 4.86741 8.31058 4.89808C8.37301 4.92874 8.42761 4.97328 8.4702 5.02827C8.5128 5.08326 8.54226 5.14726 8.55635 5.21538C8.57043 5.2835 8.56876 5.35393 8.55147 5.42131H8.76497C8.85497 5.42131 8.91997 5.34131 8.89997 5.25131Z" fill="#2D5BFF"/>
<path d="M8.01411 5.05915C8.06347 5.03844 8.11805 5.0336 8.17028 5.0453C8.22251 5.05699 8.26981 5.08464 8.30563 5.12441C8.34145 5.16418 8.36401 5.21411 8.37019 5.26728C8.37637 5.32045 8.36586 5.37422 8.34011 5.42115H7.88011C7.8581 5.3794 7.84786 5.33244 7.85051 5.28532C7.85315 5.23819 7.86857 5.19267 7.89511 5.15365C7.89958 5.16544 7.90676 5.17602 7.91609 5.1845C7.92541 5.19299 7.93661 5.19916 7.94878 5.20249C7.96094 5.20583 7.97372 5.20624 7.98607 5.2037C7.99842 5.20116 8.01 5.19573 8.01985 5.18787C8.02971 5.18 8.03756 5.16991 8.04278 5.15843C8.04799 5.14695 8.05042 5.13439 8.04986 5.1218C8.0493 5.1092 8.04577 5.09691 8.03956 5.08593C8.03335 5.07496 8.02463 5.06561 8.01411 5.05865" fill="#2D5BFF"/>
<path fill-rule="evenodd" clip-rule="evenodd" d="M11.995 15.5001H1.5C1.36739 15.5001 1.24021 15.4475 1.14645 15.3537C1.05268 15.2599 1 15.1327 1 15.0001V13.2501C1.00067 12.9968 1.017 12.7451 1.049 12.4951H0.31C0.14 12.4951 0 12.3551 0 12.1851V2.31013C0 2.14013 0.14 2.00013 0.31 2.00013H3.7545C3.8595 1.90013 3.97733 1.8168 4.108 1.75013L4.33 1.64213C4.43567 1.58513 4.5315 1.51463 4.6175 1.43063L5.1215 0.92763C5.33306 0.715065 5.60513 0.573065 5.90049 0.521064C6.19585 0.469063 6.50006 0.509601 6.7715 0.63713C6.93 0.68613 7.1 0.68363 7.2565 0.62963C7.55093 0.525738 7.8688 0.507517 8.17317 0.577083C8.47755 0.64665 8.75593 0.801148 8.976 1.02263L9.3965 1.44263C9.47917 1.52396 9.57233 1.59063 9.676 1.64263L9.887 1.74563L9.893 1.74863C10.0247 1.81563 10.1433 1.89946 10.249 2.00013H13.68C13.855 2.00013 13.99 2.14013 13.99 2.31013V12.1801C13.9913 12.221 13.9844 12.2618 13.9697 12.2999C13.955 12.3381 13.9327 12.3729 13.9043 12.4023C13.8758 12.4317 13.8417 12.455 13.8041 12.471C13.7664 12.4869 13.7259 12.4952 13.685 12.4951H12.953C12.9837 12.7451 12.9985 12.9968 12.9975 13.2501V14.5001C12.9975 14.6317 12.9716 14.7619 12.9211 14.8834C12.8707 15.0049 12.7968 15.1152 12.7037 15.2081C12.6106 15.301 12.5001 15.3746 12.3785 15.4247C12.2568 15.4748 12.1265 15.5005 11.995 15.5001ZM1.816 10.2351C1.58465 10.6326 1.39977 11.0554 1.265 11.4951H1V3.00013H3.2875C3.28083 3.11913 3.28767 3.2378 3.308 3.35613L3.528 4.57563C3.41356 4.71964 3.33018 4.88577 3.2831 5.06359C3.23602 5.2414 3.22626 5.42703 3.25444 5.6088C3.28262 5.79057 3.34813 5.96453 3.44684 6.11974C3.54555 6.27495 3.67533 6.40804 3.828 6.51063L3.8975 7.45313C3.9175 7.65163 3.9625 7.84713 4.033 8.03413C3.11319 8.55993 2.34844 9.31916 1.816 10.2351ZM10.6855 3.36263C10.7085 3.24196 10.7167 3.12113 10.71 3.00013H12.995V11.4951H12.7415C12.3127 10.0803 11.3734 8.87525 10.106 8.11413C10.1952 7.89905 10.252 7.6719 10.2745 7.44013L10.354 6.36613C10.5904 6.13875 10.7345 5.83212 10.7588 5.50503C10.7831 5.17794 10.6857 4.8534 10.4855 4.59363L10.6855 3.36263ZM10.585 14.5001H11.995V13.2501C11.9991 12.3135 11.7384 11.3947 11.243 10.5998C10.7476 9.80485 10.0377 9.16609 9.195 8.75713C9.08976 8.7054 9.00605 8.61833 8.9585 8.51113C8.91592 8.54354 8.87205 8.57423 8.827 8.60313L9.38 9.56463C9.425 9.64263 9.355 9.73263 9.25 9.73263H8.725C8.605 9.73263 8.55 9.85163 8.63 9.91763L8.732 9.99963H9.5825C9.63655 9.99864 9.69027 10.0083 9.74055 10.0282C9.79084 10.048 9.8367 10.0776 9.8755 10.1153C9.91431 10.1529 9.94528 10.1979 9.96665 10.2475C9.98802 10.2972 9.99935 10.3506 10 10.4046V11.3181C10.334 11.3931 10.585 11.6931 10.585 12.0496V14.5001ZM7.675 8.89513C7.60678 9.0143 7.50829 9.11334 7.38949 9.18222C7.2707 9.2511 7.13582 9.28737 6.9985 9.28737C6.86118 9.28737 6.7263 9.2511 6.60751 9.18222C6.48871 9.11334 6.39022 9.0143 6.322 8.89513H7.675ZM5.1915 8.61463C5.16166 8.59591 5.13231 8.5764 5.1035 8.55613L5.0895 8.57363C5.04203 8.62967 4.98279 8.67457 4.916 8.70513C4.0467 9.10575 3.31021 9.74677 2.7935 10.5525C2.27679 11.3582 2.00145 12.295 2 13.2521V14.5001H3.41V12.0501C3.41 11.8301 3.517 11.6411 3.6515 11.5136C3.7815 11.3906 3.963 11.2996 4.155 11.3001V10.9401C4.155 10.4201 4.588 9.99513 5.129 10.0001H5.2925L5.395 9.91813C5.475 9.85213 5.42 9.73313 5.3 9.73313H4.775C4.67 9.73313 4.6 9.64313 4.645 9.56513L5.1915 8.61463ZM4.8065 6.19213L4.8935 7.36713C4.90283 7.45913 4.922 7.5488 4.951 7.63613C5.06513 7.86542 5.24125 8.05813 5.45937 8.19237C5.67749 8.32662 5.92888 8.39704 6.185 8.39563H7.815C8.532 8.39563 9.1265 7.86313 9.201 7.10463L9.271 6.10863C9.18268 6.23032 9.06674 6.32932 8.9327 6.39746C8.79866 6.46561 8.65036 6.50097 8.5 6.50063H8.14C8.01425 6.5009 7.8897 6.47619 7.77358 6.42796C7.65745 6.37972 7.55205 6.30891 7.4635 6.21963C7.45009 6.27951 7.41669 6.33303 7.36879 6.37139C7.32089 6.40974 7.26136 6.43064 7.2 6.43063H6.81C6.74638 6.43133 6.68456 6.40955 6.63543 6.36911C6.58631 6.32868 6.55304 6.2722 6.5415 6.20963C6.368 6.38613 6.1265 6.49563 5.86 6.49563H5.505C5.37402 6.49589 5.2444 6.46907 5.12428 6.41684C5.00416 6.36461 4.89614 6.2881 4.807 6.19213M7 5.06613C7.071 5.06613 7.1315 5.10613 7.163 5.16513C7.0715 5.05613 6.8845 5.06963 6.82 5.20513C6.82984 5.16501 6.853 5.12941 6.8857 5.10416C6.9184 5.07892 6.95869 5.06551 7 5.06613ZM9.384 4.51613H8.795C8.82735 4.51006 8.85818 4.49765 8.88572 4.47963C8.91326 4.46162 8.93698 4.43834 8.9555 4.41113C9.0505 4.29113 9.0255 4.11613 8.9055 4.02113C8.8905 4.00613 8.4705 3.68613 7.8605 3.76113C7.7906 3.77401 7.72821 3.813 7.68599 3.87018C7.64377 3.92737 7.62488 3.99847 7.63315 4.06906C7.64142 4.13966 7.67622 4.20447 7.73051 4.25035C7.7848 4.29623 7.85451 4.31975 7.9255 4.31613C8.15069 4.2872 8.3788 4.33988 8.5685 4.46463L8.5705 4.46613C8.60917 4.49113 8.64867 4.5078 8.689 4.51613H7.64C7.49 4.51613 7.35 4.58613 7.255 4.70113C7.22447 4.73927 7.18562 4.76991 7.14142 4.79071C7.09722 4.81151 7.04884 4.82192 7 4.82113C6.95116 4.82192 6.90278 4.81151 6.85858 4.79071C6.81438 4.76991 6.77553 4.73927 6.745 4.70113C6.65 4.58613 6.51 4.51613 6.36 4.51613H5.315C5.3557 4.50806 5.39464 4.49283 5.43 4.47113C5.44 4.46113 5.695 4.27613 6.075 4.32113C6.23 4.33613 6.365 4.22613 6.385 4.07613C6.39214 4.00281 6.37062 3.92958 6.32494 3.87178C6.27927 3.81399 6.21298 3.77612 6.14 3.76613C5.535 3.69613 5.11 4.01113 5.095 4.02613C5.05298 4.05877 5.02127 4.10284 5.00367 4.15306C4.98608 4.20327 4.98335 4.2575 4.9958 4.30923C5.00826 4.36096 5.03538 4.40799 5.0739 4.44469C5.11243 4.48139 5.16073 4.5062 5.213 4.51613H4.62L4.6095 4.35863C4.60773 4.32362 4.61381 4.28865 4.62731 4.25629C4.64081 4.22393 4.66137 4.19501 4.6875 4.17163L4.7815 4.08763C4.967 3.92263 5.065 3.68863 5.065 3.45113V3.01113C5.065 3.00572 5.06675 3.00046 5.07 2.99613L5.0715 2.99463C5.1485 2.98963 5.2415 2.97513 5.333 2.95963L5.479 2.93463C5.56767 2.91896 5.66667 2.9023 5.776 2.88463C6.116 2.82963 6.539 2.77613 7 2.77613C7.935 2.77613 8.6095 2.91213 8.92 2.98863C8.92398 2.98986 8.92748 2.99231 8.93 2.99563C8.93325 2.99996 8.935 3.00522 8.935 3.01063V3.45063C8.935 3.69363 9.041 3.92413 9.2155 4.08513L9.218 4.08663L9.317 4.17613C9.34149 4.19744 9.36119 4.2237 9.37481 4.25317C9.38842 4.28264 9.39565 4.31467 9.396 4.34713L9.384 4.51613ZM10.085 14.5001V12.0491C10.085 11.9126 9.972 11.7991 9.835 11.7991V12.3741H9.8255C9.82292 12.4387 9.79544 12.4997 9.74883 12.5445C9.70223 12.5892 9.64011 12.6142 9.5755 12.6141H8.3C8.28354 12.6175 8.26679 12.6191 8.25 12.6191C8.1715 12.6191 8.1165 12.6806 8.115 12.7406V12.7436C8.11463 12.7651 8.11982 12.7864 8.13007 12.8053C8.14032 12.8242 8.15528 12.8402 8.1735 12.8516C8.20792 12.8746 8.2361 12.9058 8.2555 12.9423C8.27491 12.9789 8.28494 13.0197 8.28469 13.0611C8.28444 13.1024 8.27393 13.1431 8.25408 13.1794C8.23424 13.2157 8.20569 13.2466 8.171 13.2691C8.15437 13.2801 8.1406 13.2949 8.13086 13.3123C8.12112 13.3297 8.11568 13.3492 8.115 13.3691C8.115 13.4141 8.136 13.4481 8.1665 13.4671C8.20229 13.4893 8.23191 13.5201 8.25261 13.5567C8.27331 13.5934 8.28443 13.6347 8.28493 13.6768C8.28543 13.7188 8.27529 13.7604 8.25546 13.7975C8.23564 13.8346 8.20676 13.8661 8.1715 13.8891C8.15477 13.9001 8.14091 13.9149 8.13108 13.9323C8.12125 13.9497 8.11574 13.9692 8.115 13.9891C8.115 14.0341 8.136 14.0681 8.1665 14.0871C8.20116 14.1086 8.23006 14.1382 8.25068 14.1733C8.27129 14.2085 8.28299 14.2481 8.28477 14.2889C8.28654 14.3296 8.27833 14.3701 8.26086 14.4069C8.24338 14.4438 8.21717 14.4758 8.1845 14.5001H10.085ZM4.16 11.8001L4.155 11.7996C4.09429 11.8048 4.03757 11.832 3.9955 11.8761C3.97044 11.8979 3.94997 11.9245 3.93529 11.9543C3.92061 11.9841 3.91201 12.0165 3.91 12.0496V14.5001H5.8105C5.77794 14.4757 5.75182 14.4438 5.73441 14.407C5.717 14.3702 5.70883 14.3298 5.7106 14.2891C5.71237 14.2485 5.72404 14.2089 5.74459 14.1738C5.76513 14.1387 5.79394 14.1091 5.8285 14.0876C5.8449 14.0773 5.85831 14.0629 5.86735 14.0458C5.87639 14.0287 5.88076 14.0095 5.88 13.9901C5.87932 13.9702 5.87388 13.9507 5.86414 13.9333C5.85439 13.9159 5.84063 13.9011 5.824 13.8901C5.78861 13.8672 5.75959 13.8357 5.73965 13.7985C5.7197 13.7614 5.70948 13.7198 5.70993 13.6776C5.71038 13.6355 5.72149 13.5941 5.74222 13.5574C5.76295 13.5207 5.79263 13.4898 5.8285 13.4676C5.8449 13.4573 5.85831 13.4429 5.86735 13.4258C5.87639 13.4087 5.88076 13.3895 5.88 13.3701C5.87932 13.3502 5.87388 13.3307 5.86414 13.3133C5.85439 13.2959 5.84063 13.2811 5.824 13.2701C5.7892 13.2476 5.76056 13.2167 5.74064 13.1804C5.72073 13.144 5.71018 13.1033 5.70993 13.0618C5.70968 13.0203 5.71975 12.9795 5.73922 12.9429C5.7587 12.9063 5.78697 12.8751 5.8215 12.8521C5.83972 12.8407 5.85468 12.8247 5.86493 12.8058C5.87518 12.7869 5.88037 12.7656 5.88 12.7441V12.7411C5.8785 12.6811 5.8235 12.6201 5.745 12.6201C5.72821 12.6201 5.71146 12.6185 5.695 12.6151H4.413C4.34839 12.6152 4.28627 12.5902 4.23967 12.5455C4.19306 12.5007 4.16558 12.4397 4.163 12.3751H4.16V11.8001ZM8.055 10.0001H5.97V9.27013C6.09119 9.43456 6.25005 9.56752 6.43324 9.65788C6.61643 9.74823 6.81862 9.79334 7.02285 9.78942C7.22707 9.78551 7.42738 9.73267 7.60697 9.63536C7.78656 9.53804 7.9402 9.39908 8.055 9.23013V10.0001ZM9.4875 10.4301H5.05C4.93463 10.4301 4.82399 10.476 4.74241 10.5575C4.66083 10.6391 4.615 10.7498 4.615 10.8651C4.615 10.9805 4.66083 11.0911 4.74241 11.1727C4.82399 11.2543 4.93463 11.3001 5.05 11.3001H9.4875V10.4301ZM5.825 6.32113C6.28 6.32113 6.65 5.95113 6.65 5.49613H6.645V5.13113C6.645 4.88613 6.45 4.69113 6.205 4.69113H5.165C4.92 4.69113 4.725 4.88613 4.725 5.13113V5.49613C4.725 5.95113 5.095 6.32113 5.55 6.32113H5.825ZM8.465 6.32113C8.92 6.32113 9.29 5.95113 9.29 5.49613V5.13113C9.29 4.88613 9.095 4.69113 8.85 4.69113H7.805C7.56 4.69113 7.365 4.88613 7.365 5.13113V5.49613C7.365 5.95113 7.735 6.32113 8.19 6.32113H8.465Z" fill="#2D5BFF"/>
</svg>
