<svg width="16" height="16" viewBox="0 0 16 16" fill="none" xmlns="http://www.w3.org/2000/svg">
<path d="M7.2502 6.78631C7.4702 6.90131 7.7252 6.96631 8.0002 6.96631C8.2752 6.96631 8.5302 6.90131 8.7502 6.78631C8.8202 6.74631 8.9002 6.83131 8.8552 6.90131C8.6752 7.18131 8.3602 7.36631 8.0002 7.36631C7.6402 7.36631 7.3252 7.18131 7.1452 6.90131C7.1002 6.83131 7.1752 6.74631 7.2502 6.78631ZM6.1052 5.25131C6.1802 4.94631 6.4602 4.71631 6.7902 4.71631C7.1352 4.71631 7.4202 4.96131 7.4852 5.28631C7.5002 5.35631 7.4452 5.42131 7.3702 5.42131H7.3312C7.3403 5.38365 7.345 5.34506 7.3452 5.30631C7.3452 5.05131 7.1452 4.85131 6.8952 4.85131C6.82568 4.85149 6.75712 4.86754 6.69475 4.89824C6.63238 4.92894 6.57785 4.97348 6.53531 5.02846C6.49277 5.08345 6.46335 5.14742 6.44929 5.2155C6.43523 5.28358 6.43691 5.35397 6.4542 5.42131H6.2402C6.1502 5.42131 6.0852 5.34131 6.1052 5.25131Z" fill="#2D5BFF"/>
<path d="M7.14997 5.30131C7.14997 5.15631 7.03497 5.04131 6.88997 5.04131C6.85477 5.04068 6.81984 5.0475 6.78747 5.06131C6.79711 5.06847 6.80501 5.07772 6.81059 5.08835C6.81617 5.09899 6.81928 5.11075 6.81969 5.12275C6.82011 5.13476 6.81781 5.1467 6.81298 5.1577C6.80815 5.16869 6.80091 5.17846 6.79178 5.18627C6.78266 5.19409 6.7719 5.19975 6.76029 5.20283C6.74868 5.20592 6.73653 5.20635 6.72473 5.20409C6.71293 5.20184 6.70179 5.19696 6.69214 5.18981C6.68249 5.18266 6.67457 5.17343 6.66897 5.16281C6.64504 5.20136 6.63162 5.24551 6.63004 5.29086C6.62846 5.33621 6.63878 5.38118 6.65997 5.42131H7.11997C7.13997 5.38631 7.14997 5.34631 7.14997 5.30131ZM9.89997 5.25131C9.82497 4.94631 9.54497 4.71631 9.21497 4.71631C8.86997 4.71631 8.58497 4.96131 8.51997 5.28631C8.50497 5.35631 8.55997 5.42131 8.63497 5.42131H8.67397C8.66486 5.38365 8.66016 5.34506 8.65997 5.30631C8.65497 5.05131 8.85997 4.85131 9.10997 4.85131C9.17953 4.85141 9.24814 4.86741 9.31058 4.89808C9.37301 4.92874 9.42761 4.97328 9.4702 5.02827C9.5128 5.08326 9.54226 5.14726 9.55635 5.21538C9.57043 5.2835 9.56876 5.35393 9.55147 5.42131H9.76497C9.85497 5.42131 9.91997 5.34131 9.89997 5.25131Z" fill="#2D5BFF"/>
<path d="M9.01411 5.05915C9.06347 5.03844 9.11805 5.0336 9.17028 5.0453C9.22251 5.05699 9.26981 5.08464 9.30563 5.12441C9.34145 5.16418 9.36401 5.21411 9.37019 5.26728C9.37637 5.32045 9.36586 5.37422 9.34011 5.42115H8.88011C8.8581 5.3794 8.84786 5.33244 8.85051 5.28532C8.85315 5.23819 8.86857 5.19267 8.89511 5.15365C8.89958 5.16544 8.90676 5.17602 8.91609 5.1845C8.92541 5.19299 8.93661 5.19916 8.94878 5.20249C8.96094 5.20583 8.97372 5.20624 8.98607 5.2037C8.99842 5.20116 9.01 5.19573 9.01985 5.18787C9.02971 5.18 9.03756 5.16991 9.04278 5.15843C9.04799 5.14695 9.05042 5.13439 9.04986 5.1218C9.0493 5.1092 9.04577 5.09691 9.03956 5.08593C9.03335 5.07496 9.02463 5.06561 9.01411 5.05865" fill="#2D5BFF"/>
<path fill-rule="evenodd" clip-rule="evenodd" d="M12.995 15.5001H2.5C2.36739 15.5001 2.24021 15.4475 2.14645 15.3537C2.05268 15.2599 2 15.1327 2 15.0001V13.2501C2.00067 12.9968 2.017 12.7451 2.049 12.4951H1.31C1.14 12.4951 1 12.3551 1 12.1851V2.31013C1 2.14013 1.14 2.00013 1.31 2.00013H4.7545C4.8595 1.90013 4.97733 1.8168 5.108 1.75013L5.33 1.64213C5.43567 1.58513 5.5315 1.51463 5.6175 1.43063L6.1215 0.92763C6.33306 0.715065 6.60513 0.573065 6.90049 0.521064C7.19585 0.469063 7.50006 0.509601 7.7715 0.63713C7.93 0.68613 8.1 0.68363 8.2565 0.62963C8.55093 0.525738 8.8688 0.507517 9.17317 0.577083C9.47755 0.64665 9.75593 0.801148 9.976 1.02263L10.3965 1.44263C10.4792 1.52396 10.5723 1.59063 10.676 1.64263L10.887 1.74563L10.893 1.74863C11.0247 1.81563 11.1433 1.89946 11.249 2.00013H14.68C14.855 2.00013 14.99 2.14013 14.99 2.31013V12.1801C14.9913 12.221 14.9844 12.2618 14.9697 12.2999C14.955 12.3381 14.9327 12.3729 14.9043 12.4023C14.8758 12.4317 14.8417 12.455 14.8041 12.471C14.7664 12.4869 14.7259 12.4952 14.685 12.4951H13.953C13.9837 12.7451 13.9985 12.9968 13.9975 13.2501V14.5001C13.9975 14.6317 13.9716 14.7619 13.9211 14.8834C13.8707 15.0049 13.7968 15.1152 13.7037 15.2081C13.6106 15.301 13.5001 15.3746 13.3785 15.4247C13.2568 15.4748 13.1265 15.5005 12.995 15.5001ZM2.816 10.2351C2.58465 10.6326 2.39977 11.0554 2.265 11.4951H2V3.00013H4.2875C4.28083 3.11913 4.28767 3.2378 4.308 3.35613L4.528 4.57563C4.41356 4.71964 4.33018 4.88577 4.2831 5.06359C4.23602 5.2414 4.22626 5.42703 4.25444 5.6088C4.28262 5.79057 4.34813 5.96453 4.44684 6.11974C4.54555 6.27495 4.67533 6.40804 4.828 6.51063L4.8975 7.45313C4.9175 7.65163 4.9625 7.84713 5.033 8.03413C4.11319 8.55993 3.34844 9.31916 2.816 10.2351ZM11.6855 3.36263C11.7085 3.24196 11.7167 3.12113 11.71 3.00013H13.995V11.4951H13.7415C13.3127 10.0803 12.3734 8.87525 11.106 8.11413C11.1952 7.89905 11.252 7.6719 11.2745 7.44013L11.354 6.36613C11.5904 6.13875 11.7345 5.83212 11.7588 5.50503C11.7831 5.17794 11.6857 4.8534 11.4855 4.59363L11.6855 3.36263ZM11.585 14.5001H12.995V13.2501C12.9991 12.3135 12.7384 11.3947 12.243 10.5998C11.7476 9.80485 11.0377 9.16609 10.195 8.75713C10.0898 8.7054 10.006 8.61833 9.9585 8.51113C9.91592 8.54354 9.87205 8.57423 9.827 8.60313L10.38 9.56463C10.425 9.64263 10.355 9.73263 10.25 9.73263H9.725C9.605 9.73263 9.55 9.85163 9.63 9.91763L9.732 9.99963H10.5825C10.6366 9.99864 10.6903 10.0083 10.7406 10.0282C10.7908 10.048 10.8367 10.0776 10.8755 10.1153C10.9143 10.1529 10.9453 10.1979 10.9667 10.2475C10.988 10.2972 10.9993 10.3506 11 10.4046V11.3181C11.334 11.3931 11.585 11.6931 11.585 12.0496V14.5001ZM8.675 8.89513C8.60678 9.0143 8.50829 9.11334 8.38949 9.18222C8.2707 9.2511 8.13582 9.28737 7.9985 9.28737C7.86118 9.28737 7.7263 9.2511 7.60751 9.18222C7.48871 9.11334 7.39022 9.0143 7.322 8.89513H8.675ZM6.1915 8.61463C6.16166 8.59591 6.13231 8.5764 6.1035 8.55613L6.0895 8.57363C6.04203 8.62967 5.98279 8.67457 5.916 8.70513C5.0467 9.10575 4.31021 9.74677 3.7935 10.5525C3.27679 11.3582 3.00145 12.295 3 13.2521V14.5001H4.41V12.0501C4.41 11.8301 4.517 11.6411 4.6515 11.5136C4.7815 11.3906 4.963 11.2996 5.155 11.3001V10.9401C5.155 10.4201 5.588 9.99513 6.129 10.0001H6.2925L6.395 9.91813C6.475 9.85213 6.42 9.73313 6.3 9.73313H5.775C5.67 9.73313 5.6 9.64313 5.645 9.56513L6.1915 8.61463ZM5.8065 6.19213L5.8935 7.36713C5.90283 7.45913 5.922 7.5488 5.951 7.63613C6.06513 7.86542 6.24125 8.05813 6.45937 8.19237C6.67749 8.32662 6.92888 8.39704 7.185 8.39563H8.815C9.532 8.39563 10.1265 7.86313 10.201 7.10463L10.271 6.10863C10.1827 6.23032 10.0667 6.32932 9.9327 6.39746C9.79866 6.46561 9.65036 6.50097 9.5 6.50063H9.14C9.01425 6.5009 8.8897 6.47619 8.77358 6.42796C8.65745 6.37972 8.55205 6.30891 8.4635 6.21963C8.45009 6.27951 8.41669 6.33303 8.36879 6.37139C8.32089 6.40974 8.26136 6.43064 8.2 6.43063H7.81C7.74638 6.43133 7.68456 6.40955 7.63543 6.36911C7.58631 6.32868 7.55304 6.2722 7.5415 6.20963C7.368 6.38613 7.1265 6.49563 6.86 6.49563H6.505C6.37402 6.49589 6.2444 6.46907 6.12428 6.41684C6.00416 6.36461 5.89614 6.2881 5.807 6.19213M8 5.06613C8.071 5.06613 8.1315 5.10613 8.163 5.16513C8.0715 5.05613 7.8845 5.06963 7.82 5.20513C7.82984 5.16501 7.853 5.12941 7.8857 5.10416C7.9184 5.07892 7.95869 5.06551 8 5.06613ZM10.384 4.51613H9.795C9.82735 4.51006 9.85818 4.49765 9.88572 4.47963C9.91326 4.46162 9.93698 4.43834 9.9555 4.41113C10.0505 4.29113 10.0255 4.11613 9.9055 4.02113C9.8905 4.00613 9.4705 3.68613 8.8605 3.76113C8.7906 3.77401 8.72821 3.813 8.68599 3.87018C8.64377 3.92737 8.62488 3.99847 8.63315 4.06906C8.64142 4.13966 8.67622 4.20447 8.73051 4.25035C8.7848 4.29623 8.85451 4.31975 8.9255 4.31613C9.15069 4.2872 9.3788 4.33988 9.5685 4.46463L9.5705 4.46613C9.60917 4.49113 9.64867 4.5078 9.689 4.51613H8.64C8.49 4.51613 8.35 4.58613 8.255 4.70113C8.22447 4.73927 8.18562 4.76991 8.14142 4.79071C8.09722 4.81151 8.04884 4.82192 8 4.82113C7.95116 4.82192 7.90278 4.81151 7.85858 4.79071C7.81438 4.76991 7.77553 4.73927 7.745 4.70113C7.65 4.58613 7.51 4.51613 7.36 4.51613H6.315C6.3557 4.50806 6.39464 4.49283 6.43 4.47113C6.44 4.46113 6.695 4.27613 7.075 4.32113C7.23 4.33613 7.365 4.22613 7.385 4.07613C7.39214 4.00281 7.37062 3.92958 7.32494 3.87178C7.27927 3.81399 7.21298 3.77612 7.14 3.76613C6.535 3.69613 6.11 4.01113 6.095 4.02613C6.05298 4.05877 6.02127 4.10284 6.00367 4.15306C5.98608 4.20327 5.98335 4.2575 5.9958 4.30923C6.00826 4.36096 6.03538 4.40799 6.0739 4.44469C6.11243 4.48139 6.16073 4.5062 6.213 4.51613H5.62L5.6095 4.35863C5.60773 4.32362 5.61381 4.28865 5.62731 4.25629C5.64081 4.22393 5.66137 4.19501 5.6875 4.17163L5.7815 4.08763C5.967 3.92263 6.065 3.68863 6.065 3.45113V3.01113C6.065 3.00572 6.06675 3.00046 6.07 2.99613L6.0715 2.99463C6.1485 2.98963 6.2415 2.97513 6.333 2.95963L6.479 2.93463C6.56767 2.91896 6.66667 2.9023 6.776 2.88463C7.116 2.82963 7.539 2.77613 8 2.77613C8.935 2.77613 9.6095 2.91213 9.92 2.98863C9.92398 2.98986 9.92748 2.99231 9.93 2.99563C9.93325 2.99996 9.935 3.00522 9.935 3.01063V3.45063C9.935 3.69363 10.041 3.92413 10.2155 4.08513L10.218 4.08663L10.317 4.17613C10.3415 4.19744 10.3612 4.2237 10.3748 4.25317C10.3884 4.28264 10.3956 4.31467 10.396 4.34713L10.384 4.51613ZM11.085 14.5001V12.0491C11.085 11.9126 10.972 11.7991 10.835 11.7991V12.3741H10.8255C10.8229 12.4387 10.7954 12.4997 10.7488 12.5445C10.7022 12.5892 10.6401 12.6142 10.5755 12.6141H9.3C9.28354 12.6175 9.26679 12.6191 9.25 12.6191C9.1715 12.6191 9.1165 12.6806 9.115 12.7406V12.7436C9.11463 12.7651 9.11982 12.7864 9.13007 12.8053C9.14032 12.8242 9.15528 12.8402 9.1735 12.8516C9.20792 12.8746 9.2361 12.9058 9.2555 12.9423C9.27491 12.9789 9.28494 13.0197 9.28469 13.0611C9.28444 13.1024 9.27393 13.1431 9.25408 13.1794C9.23424 13.2157 9.20569 13.2466 9.171 13.2691C9.15437 13.2801 9.1406 13.2949 9.13086 13.3123C9.12112 13.3297 9.11568 13.3492 9.115 13.3691C9.115 13.4141 9.136 13.4481 9.1665 13.4671C9.20229 13.4893 9.23191 13.5201 9.25261 13.5567C9.27331 13.5934 9.28443 13.6347 9.28493 13.6768C9.28543 13.7188 9.27529 13.7604 9.25546 13.7975C9.23564 13.8346 9.20676 13.8661 9.1715 13.8891C9.15477 13.9001 9.14091 13.9149 9.13108 13.9323C9.12125 13.9497 9.11574 13.9692 9.115 13.9891C9.115 14.0341 9.136 14.0681 9.1665 14.0871C9.20116 14.1086 9.23006 14.1382 9.25068 14.1733C9.27129 14.2085 9.28299 14.2481 9.28477 14.2889C9.28654 14.3296 9.27833 14.3701 9.26086 14.4069C9.24338 14.4438 9.21717 14.4758 9.1845 14.5001H11.085ZM5.16 11.8001L5.155 11.7996C5.09429 11.8048 5.03757 11.832 4.9955 11.8761C4.97044 11.8979 4.94997 11.9245 4.93529 11.9543C4.92061 11.9841 4.91201 12.0165 4.91 12.0496V14.5001H6.8105C6.77794 14.4757 6.75182 14.4438 6.73441 14.407C6.717 14.3702 6.70883 14.3298 6.7106 14.2891C6.71237 14.2485 6.72404 14.2089 6.74459 14.1738C6.76513 14.1387 6.79394 14.1091 6.8285 14.0876C6.8449 14.0773 6.85831 14.0629 6.86735 14.0458C6.87639 14.0287 6.88076 14.0095 6.88 13.9901C6.87932 13.9702 6.87388 13.9507 6.86414 13.9333C6.85439 13.9159 6.84063 13.9011 6.824 13.8901C6.78861 13.8672 6.75959 13.8357 6.73965 13.7985C6.7197 13.7614 6.70948 13.7198 6.70993 13.6776C6.71038 13.6355 6.72149 13.5941 6.74222 13.5574C6.76295 13.5207 6.79263 13.4898 6.8285 13.4676C6.8449 13.4573 6.85831 13.4429 6.86735 13.4258C6.87639 13.4087 6.88076 13.3895 6.88 13.3701C6.87932 13.3502 6.87388 13.3307 6.86414 13.3133C6.85439 13.2959 6.84063 13.2811 6.824 13.2701C6.7892 13.2476 6.76056 13.2167 6.74064 13.1804C6.72073 13.144 6.71018 13.1033 6.70993 13.0618C6.70968 13.0203 6.71975 12.9795 6.73922 12.9429C6.7587 12.9063 6.78697 12.8751 6.8215 12.8521C6.83972 12.8407 6.85468 12.8247 6.86493 12.8058C6.87518 12.7869 6.88037 12.7656 6.88 12.7441V12.7411C6.8785 12.6811 6.8235 12.6201 6.745 12.6201C6.72821 12.6201 6.71146 12.6185 6.695 12.6151H5.413C5.34839 12.6152 5.28627 12.5902 5.23967 12.5455C5.19306 12.5007 5.16558 12.4397 5.163 12.3751H5.16V11.8001ZM9.055 10.0001H6.97V9.27013C7.09119 9.43456 7.25005 9.56752 7.43324 9.65788C7.61643 9.74823 7.81862 9.79334 8.02285 9.78942C8.22707 9.78551 8.42738 9.73267 8.60697 9.63536C8.78656 9.53804 8.9402 9.39908 9.055 9.23013V10.0001ZM10.4875 10.4301H6.05C5.93463 10.4301 5.82399 10.476 5.74241 10.5575C5.66083 10.6391 5.615 10.7498 5.615 10.8651C5.615 10.9805 5.66083 11.0911 5.74241 11.1727C5.82399 11.2543 5.93463 11.3001 6.05 11.3001H10.4875V10.4301ZM6.825 6.32113C7.28 6.32113 7.65 5.95113 7.65 5.49613H7.645V5.13113C7.645 4.88613 7.45 4.69113 7.205 4.69113H6.165C5.92 4.69113 5.725 4.88613 5.725 5.13113V5.49613C5.725 5.95113 6.095 6.32113 6.55 6.32113H6.825ZM9.465 6.32113C9.92 6.32113 10.29 5.95113 10.29 5.49613V5.13113C10.29 4.88613 10.095 4.69113 9.85 4.69113H8.805C8.56 4.69113 8.365 4.88613 8.365 5.13113V5.49613C8.365 5.95113 8.735 6.32113 9.19 6.32113H9.465Z" fill="#2D5BFF"/>
</svg>
